<mxfile host="app.diagrams.net" modified="2023-08-22T01:35:02.551Z" agent="Mozilla/5.0 (Windows NT 10.0; Win64; x64) AppleWebKit/537.36 (KHTML, like Gecko) Chrome/115.0.0.0 Safari/537.36" etag="hNENslV4OZ6bEPwY8KXI" version="21.6.8" type="github">
  <diagram name="Page-1" id="xhI4nSuHOF_YYmCanpdr">
    <mxGraphModel dx="1434" dy="796" grid="1" gridSize="10" guides="1" tooltips="1" connect="1" arrows="1" fold="1" page="1" pageScale="1" pageWidth="827" pageHeight="1169" math="0" shadow="0">
      <root>
        <mxCell id="0" />
        <mxCell id="1" parent="0" />
        <mxCell id="pwx656oT5oHDgiwaJRfB-2" value="" style="swimlane;startSize=0;fillColor=#000000;fillStyle=auto;strokeWidth=5;" parent="1" vertex="1">
          <mxGeometry x="160" y="40" width="520" height="920" as="geometry">
            <mxRectangle x="160" y="40" width="50" height="40" as="alternateBounds" />
          </mxGeometry>
        </mxCell>
        <mxCell id="pwx656oT5oHDgiwaJRfB-18" value="Transaksi Tiket" style="ellipse;whiteSpace=wrap;html=1;" parent="pwx656oT5oHDgiwaJRfB-2" vertex="1">
          <mxGeometry x="200" y="420" width="120" height="80" as="geometry" />
        </mxCell>
        <mxCell id="pwx656oT5oHDgiwaJRfB-19" value="" style="endArrow=classic;html=1;rounded=0;entryX=0;entryY=0.5;entryDx=0;entryDy=0;" parent="pwx656oT5oHDgiwaJRfB-2" source="pwx656oT5oHDgiwaJRfB-8" edge="1">
          <mxGeometry width="50" height="50" relative="1" as="geometry">
            <mxPoint x="-40" y="459.5" as="sourcePoint" />
            <mxPoint x="200" y="459.5" as="targetPoint" />
            <Array as="points">
              <mxPoint x="100" y="430" />
            </Array>
          </mxGeometry>
        </mxCell>
        <mxCell id="pwx656oT5oHDgiwaJRfB-20" value="" style="endArrow=classic;html=1;rounded=0;entryX=0;entryY=0.5;entryDx=0;entryDy=0;fillColor=#dae8fc;strokeColor=#6c8ebf;" parent="pwx656oT5oHDgiwaJRfB-2" edge="1">
          <mxGeometry width="50" height="50" relative="1" as="geometry">
            <mxPoint x="-40" y="640" as="sourcePoint" />
            <mxPoint x="200" y="470" as="targetPoint" />
          </mxGeometry>
        </mxCell>
        <mxCell id="pwx656oT5oHDgiwaJRfB-22" value="Ulasan" style="ellipse;whiteSpace=wrap;html=1;" parent="pwx656oT5oHDgiwaJRfB-2" vertex="1">
          <mxGeometry x="200" y="240" width="120" height="80" as="geometry" />
        </mxCell>
        <mxCell id="pwx656oT5oHDgiwaJRfB-23" value="" style="endArrow=classic;html=1;rounded=0;entryX=0;entryY=0.5;entryDx=0;entryDy=0;" parent="pwx656oT5oHDgiwaJRfB-2" edge="1">
          <mxGeometry width="50" height="50" relative="1" as="geometry">
            <mxPoint x="-40" y="370" as="sourcePoint" />
            <mxPoint x="200" y="279.5" as="targetPoint" />
          </mxGeometry>
        </mxCell>
        <mxCell id="pwx656oT5oHDgiwaJRfB-24" value="" style="endArrow=classic;html=1;rounded=0;entryX=1;entryY=0.5;entryDx=0;entryDy=0;fillColor=#f8cecc;strokeColor=#b85450;" parent="pwx656oT5oHDgiwaJRfB-2" edge="1">
          <mxGeometry width="50" height="50" relative="1" as="geometry">
            <mxPoint x="560" y="370" as="sourcePoint" />
            <mxPoint x="320" y="279.5" as="targetPoint" />
          </mxGeometry>
        </mxCell>
        <mxCell id="yOPuZoGlTua-jCLXy9iz-3" value="Maintance" style="ellipse;whiteSpace=wrap;html=1;" vertex="1" parent="pwx656oT5oHDgiwaJRfB-2">
          <mxGeometry x="200" y="800" width="120" height="80" as="geometry" />
        </mxCell>
        <mxCell id="yOPuZoGlTua-jCLXy9iz-4" value="Perbaikan bug" style="ellipse;whiteSpace=wrap;html=1;" vertex="1" parent="pwx656oT5oHDgiwaJRfB-2">
          <mxGeometry x="200" y="710" width="120" height="80" as="geometry" />
        </mxCell>
        <mxCell id="yOPuZoGlTua-jCLXy9iz-8" value="Pengecekan&lt;br&gt;transaksi" style="ellipse;whiteSpace=wrap;html=1;" vertex="1" parent="pwx656oT5oHDgiwaJRfB-2">
          <mxGeometry x="200" y="520" width="120" height="80" as="geometry" />
        </mxCell>
        <mxCell id="yOPuZoGlTua-jCLXy9iz-12" value="Cek &amp;amp; Balas" style="text;html=1;strokeColor=none;fillColor=none;align=center;verticalAlign=middle;whiteSpace=wrap;rounded=0;rotation=20;" vertex="1" parent="pwx656oT5oHDgiwaJRfB-2">
          <mxGeometry x="390" y="290" width="70" height="30" as="geometry" />
        </mxCell>
        <mxCell id="pwx656oT5oHDgiwaJRfB-7" value="System Pemandian" style="text;html=1;align=center;verticalAlign=middle;resizable=0;points=[];autosize=1;strokeColor=none;fillColor=none;fontFamily=Times New Roman;fontSize=23;" parent="1" vertex="1">
          <mxGeometry x="320" y="43" width="200" height="40" as="geometry" />
        </mxCell>
        <mxCell id="pwx656oT5oHDgiwaJRfB-8" value="User&lt;br&gt;" style="shape=umlActor;verticalLabelPosition=bottom;verticalAlign=top;html=1;outlineConnect=0;strokeWidth=3;" parent="1" vertex="1">
          <mxGeometry x="80" y="360" width="40" height="80" as="geometry" />
        </mxCell>
        <mxCell id="pwx656oT5oHDgiwaJRfB-9" value="Admin" style="shape=umlActor;verticalLabelPosition=bottom;verticalAlign=top;html=1;outlineConnect=0;fillColor=#f8cecc;strokeColor=#b85450;strokeWidth=3;" parent="1" vertex="1">
          <mxGeometry x="720" y="360" width="40" height="80" as="geometry" />
        </mxCell>
        <mxCell id="pwx656oT5oHDgiwaJRfB-11" value="Staff" style="shape=umlActor;verticalLabelPosition=bottom;verticalAlign=top;html=1;outlineConnect=0;fillColor=#dae8fc;strokeColor=#6c8ebf;strokeWidth=3;" parent="1" vertex="1">
          <mxGeometry x="80" y="640" width="40" height="80" as="geometry" />
        </mxCell>
        <mxCell id="pwx656oT5oHDgiwaJRfB-12" value="Login" style="ellipse;whiteSpace=wrap;html=1;" parent="1" vertex="1">
          <mxGeometry x="360" y="370" width="120" height="80" as="geometry" />
        </mxCell>
        <mxCell id="pwx656oT5oHDgiwaJRfB-14" value="" style="endArrow=classic;html=1;rounded=0;entryX=0.008;entryY=0.675;entryDx=0;entryDy=0;entryPerimeter=0;fillColor=#dae8fc;strokeColor=#6c8ebf;" parent="1" target="pwx656oT5oHDgiwaJRfB-12" edge="1">
          <mxGeometry width="50" height="50" relative="1" as="geometry">
            <mxPoint x="120" y="680" as="sourcePoint" />
            <mxPoint x="170" y="560" as="targetPoint" />
            <Array as="points">
              <mxPoint x="210" y="570" />
            </Array>
          </mxGeometry>
        </mxCell>
        <mxCell id="pwx656oT5oHDgiwaJRfB-15" value="" style="endArrow=classic;html=1;rounded=0;entryX=0;entryY=0.5;entryDx=0;entryDy=0;" parent="1" target="pwx656oT5oHDgiwaJRfB-12" edge="1">
          <mxGeometry width="50" height="50" relative="1" as="geometry">
            <mxPoint x="120" y="410" as="sourcePoint" />
            <mxPoint x="170" y="360" as="targetPoint" />
          </mxGeometry>
        </mxCell>
        <mxCell id="pwx656oT5oHDgiwaJRfB-17" value="" style="endArrow=classic;html=1;rounded=0;entryX=1;entryY=0.5;entryDx=0;entryDy=0;fillColor=#f8cecc;strokeColor=#b85450;" parent="1" target="pwx656oT5oHDgiwaJRfB-12" edge="1">
          <mxGeometry width="50" height="50" relative="1" as="geometry">
            <mxPoint x="720" y="410" as="sourcePoint" />
            <mxPoint x="650" y="350" as="targetPoint" />
          </mxGeometry>
        </mxCell>
        <mxCell id="yOPuZoGlTua-jCLXy9iz-1" value="Teknisi" style="shape=umlActor;verticalLabelPosition=bottom;verticalAlign=top;html=1;outlineConnect=0;fillColor=#fff2cc;strokeColor=#d6b656;strokeWidth=3;" vertex="1" parent="1">
          <mxGeometry x="720" y="640" width="40" height="80" as="geometry" />
        </mxCell>
        <mxCell id="yOPuZoGlTua-jCLXy9iz-6" value="" style="endArrow=classic;html=1;rounded=0;entryX=1;entryY=0.5;entryDx=0;entryDy=0;fillColor=#fff2cc;strokeColor=#d6b656;" edge="1" parent="1" target="yOPuZoGlTua-jCLXy9iz-4">
          <mxGeometry width="50" height="50" relative="1" as="geometry">
            <mxPoint x="720" y="690" as="sourcePoint" />
            <mxPoint x="450" y="610" as="targetPoint" />
          </mxGeometry>
        </mxCell>
        <mxCell id="yOPuZoGlTua-jCLXy9iz-7" value="" style="endArrow=classic;html=1;rounded=0;entryX=1;entryY=0.5;entryDx=0;entryDy=0;fillColor=#fff2cc;strokeColor=#d6b656;" edge="1" parent="1" target="yOPuZoGlTua-jCLXy9iz-3">
          <mxGeometry width="50" height="50" relative="1" as="geometry">
            <mxPoint x="720" y="690" as="sourcePoint" />
            <mxPoint x="490" y="800" as="targetPoint" />
          </mxGeometry>
        </mxCell>
        <mxCell id="yOPuZoGlTua-jCLXy9iz-9" value="" style="endArrow=classic;html=1;rounded=0;entryX=0.983;entryY=0.413;entryDx=0;entryDy=0;fillColor=#f8cecc;strokeColor=#b85450;entryPerimeter=0;" edge="1" parent="1" target="yOPuZoGlTua-jCLXy9iz-8">
          <mxGeometry width="50" height="50" relative="1" as="geometry">
            <mxPoint x="720" y="410" as="sourcePoint" />
            <mxPoint x="490" y="420" as="targetPoint" />
          </mxGeometry>
        </mxCell>
        <mxCell id="yOPuZoGlTua-jCLXy9iz-10" value="" style="endArrow=classic;html=1;rounded=0;entryX=0;entryY=0.5;entryDx=0;entryDy=0;fillColor=#dae8fc;strokeColor=#6c8ebf;" edge="1" parent="1" target="yOPuZoGlTua-jCLXy9iz-8">
          <mxGeometry width="50" height="50" relative="1" as="geometry">
            <mxPoint x="120" y="680" as="sourcePoint" />
            <mxPoint x="500" y="430" as="targetPoint" />
          </mxGeometry>
        </mxCell>
        <mxCell id="yOPuZoGlTua-jCLXy9iz-11" value="" style="endArrow=none;html=1;rounded=0;exitX=0;exitY=0.043;exitDx=0;exitDy=0;exitPerimeter=0;entryX=1;entryY=0.045;entryDx=0;entryDy=0;entryPerimeter=0;strokeWidth=5;" edge="1" parent="1" source="pwx656oT5oHDgiwaJRfB-2" target="pwx656oT5oHDgiwaJRfB-2">
          <mxGeometry width="50" height="50" relative="1" as="geometry">
            <mxPoint x="410" y="380" as="sourcePoint" />
            <mxPoint x="460" y="330" as="targetPoint" />
          </mxGeometry>
        </mxCell>
      </root>
    </mxGraphModel>
  </diagram>
</mxfile>
